# Blender 4.1.1
# www.blender.org
mtllib player.mtl
o 立方体
v -0.256653 -0.134469 0.494983
v -0.506653 -0.134469 0.244983
v -0.256653 0.365531 0.494983
v -0.256653 0.615531 0.244983
v -0.506653 0.365531 0.244983
v -0.506653 -0.134469 -0.255017
v -0.256653 -0.134469 -0.505017
v -0.256653 0.615531 -0.255017
v -0.256653 0.365531 -0.505017
v -0.506653 0.365531 -0.255017
v 0.493347 -0.134469 0.244983
v 0.243347 -0.134469 0.494983
v 0.243347 0.615531 0.244983
v 0.243347 0.365531 0.494983
v 0.493347 0.365531 0.244983
v 0.243347 -0.134469 -0.505017
v 0.493347 -0.134469 -0.255017
v 0.243347 0.615531 -0.255017
v 0.493347 0.365531 -0.255017
v 0.243347 0.365531 -0.505017
v 0.187101 -0.493438 0.426970
v 0.210716 -0.493438 0.482106
v 0.482291 -0.493438 0.426970
v 0.458676 -0.493438 0.482106
v 0.482291 -0.493438 0.137504
v 0.482291 -0.493438 -0.151961
v 0.458675 -0.493438 -0.207097
v 0.187101 -0.493438 -0.151961
v 0.210716 -0.493438 -0.207097
v 0.210716 -0.158014 -0.207097
v 0.210716 -0.133362 -0.151961
v 0.187101 -0.161768 -0.151961
v 0.458675 -0.158014 -0.207097
v 0.458675 -0.133362 -0.151961
v 0.482291 -0.161768 -0.151961
v 0.482291 -0.161918 0.137504
v 0.458676 -0.152003 0.173585
v 0.458676 -0.133362 0.082368
v 0.482291 -0.311825 0.426970
v 0.458676 -0.292764 0.446026
v 0.458676 -0.336058 0.482106
v 0.210716 -0.336058 0.482106
v 0.187101 -0.311825 0.426970
v 0.210716 -0.292764 0.446026
v 0.210716 -0.152003 0.173585
v 0.187101 -0.161918 0.137504
v 0.210716 -0.133362 0.082368
v 0.187101 -0.493438 0.137504
v -0.477538 -0.493351 0.426973
v -0.453923 -0.493351 0.482109
v -0.182348 -0.493351 0.426973
v -0.205963 -0.493351 0.482109
v -0.182348 -0.493351 0.137508
v -0.182348 -0.493351 -0.151957
v -0.205963 -0.493351 -0.207094
v -0.477538 -0.493351 -0.151957
v -0.453923 -0.493351 -0.207094
v -0.453923 -0.157927 -0.207094
v -0.453923 -0.133274 -0.151957
v -0.477538 -0.161681 -0.151957
v -0.205963 -0.157927 -0.207094
v -0.205963 -0.133274 -0.151957
v -0.182348 -0.161681 -0.151957
v -0.182348 -0.161831 0.137508
v -0.205963 -0.151916 0.173588
v -0.205963 -0.133274 0.082371
v -0.182348 -0.311738 0.426973
v -0.205963 -0.292676 0.446029
v -0.205963 -0.335970 0.482109
v -0.453923 -0.335970 0.482109
v -0.477538 -0.311738 0.426973
v -0.453923 -0.292676 0.446029
v -0.453923 -0.151916 0.173588
v -0.477538 -0.161831 0.137508
v -0.453923 -0.133274 0.082371
v -0.477538 -0.493351 0.137508
vn -0.0000 -0.0000 1.0000
vn 1.0000 -0.0000 -0.0000
vn -0.0000 1.0000 -0.0000
vn -1.0000 -0.0000 -0.0000
vn -0.0000 -0.0000 -1.0000
vn -0.5774 0.5774 0.5774
vn -0.5774 0.5774 -0.5774
vn 0.5774 0.5774 0.5774
vn 0.5774 0.5774 -0.5774
vn -0.7071 -0.0000 0.7071
vn -0.7071 0.7071 -0.0000
vn -0.7071 -0.0000 -0.7071
vn -0.0000 0.7071 -0.7071
vn 0.7071 -0.0000 -0.7071
vn 0.7071 0.7071 -0.0000
vn 0.7071 -0.0000 0.7071
vn -0.0000 0.7071 0.7071
vn -0.0000 -1.0000 -0.0000
vn -0.9192 -0.0000 -0.3937
vn -0.7394 0.6147 -0.2748
vn -0.0000 0.9129 -0.4082
vn 0.7394 0.6147 -0.2748
vn 0.9192 -0.0000 -0.3937
vn 0.7690 0.6393 -0.0000
vn 0.5828 0.7961 0.1627
vn 0.7323 0.6047 0.3131
vn 0.7508 0.4229 0.5074
vn 0.9192 -0.0000 0.3937
vn -0.0000 0.6402 0.7682
vn -0.7508 0.4229 0.5074
vn -0.9192 -0.0000 0.3937
vn -0.7361 0.6013 0.3107
vn -0.0000 0.8884 0.4590
vn -0.5828 0.7961 0.1627
vn -0.0000 0.9797 0.2002
vn -0.7703 0.6377 0.0003
vn 0.7323 0.6047 0.3132
vn 0.7703 0.6377 0.0003
vn 0.7361 0.6013 0.3107
vn -0.7323 0.6047 0.3132
vn -0.7690 0.6393 -0.0000
vn -0.7323 0.6047 0.3131
vt 0.292154 0.776420
vt 0.241876 0.582804
vt 0.363824 0.654473
vt 0.654249 0.579057
vt 0.460632 0.629334
vt 0.532302 0.507387
vt 0.507563 0.130732
vt 0.701180 0.080455
vt 0.629510 0.202402
vt 0.094790 0.414326
vt 0.288407 0.364048
vt 0.216738 0.485995
vt 0.456885 0.216962
vt 0.507163 0.410579
vt 0.385216 0.338909
vt 0.104969 0.618355
vt 0.008561 0.591722
vt 0.079830 0.521547
vt 0.279489 0.130732
vt 0.349664 0.202001
vt 0.252856 0.227140
vt 0.469550 0.862650
vt 0.399375 0.791381
vt 0.496184 0.766242
vt 0.740479 0.401660
vt 0.669209 0.471836
vt 0.644071 0.375027
vt 0.080230 0.241700
vt 0.008561 0.363648
vt 0.578832 0.288632
vt 0.668809 0.751682
vt 0.740479 0.629735
vt 0.119529 0.790981
vt 0.241476 0.862650
vt 0.886163 0.403758
vt 0.800067 0.448256
vt 0.793969 0.432087
vt 0.865221 0.335604
vt 0.789914 0.451377
vt 0.790279 0.434014
vt 0.756427 0.369034
vt 0.777369 0.437188
vt 0.756651 0.358415
vt 0.773027 0.363933
vt 0.768993 0.347130
vt 0.744298 0.287627
vt 0.758871 0.349566
vt 0.860155 0.319118
vt 0.750467 0.271137
vt 0.833269 0.240981
vt 0.741727 0.263325
vt 0.755179 0.183676
vt 0.803558 0.164534
vt 0.740460 0.170356
vt 0.755312 0.165144
vt 0.744410 0.179552
vt 0.717527 0.105011
vt 0.771101 0.082503
vt 0.797236 0.148556
vt 0.717007 0.093567
vt 0.733022 0.102372
vt 0.761970 0.066309
vt 0.822973 0.540429
vt 0.890207 0.594707
vt 0.884688 0.603408
vt 0.674609 0.267429
vt 0.745518 0.180937
vt 0.824556 0.527805
vt 0.808038 0.518212
vt 0.676678 0.294299
vt 0.809713 0.515782
vt 0.687067 0.362449
vt 0.891229 0.420244
vt 0.915677 0.499806
vt 0.940125 0.579368
vt 0.940125 0.290532
vt 0.804283 0.147357
vt 0.653332 0.938310
vt 0.608834 0.852213
vt 0.625003 0.846116
vt 0.721486 0.917368
vt 0.605713 0.842060
vt 0.623076 0.842426
vt 0.688056 0.808573
vt 0.619902 0.829515
vt 0.698675 0.808798
vt 0.693157 0.825174
vt 0.709960 0.821140
vt 0.769463 0.796444
vt 0.707524 0.811018
vt 0.737972 0.912302
vt 0.785953 0.802613
vt 0.816109 0.885415
vt 0.793765 0.793874
vt 0.873414 0.807325
vt 0.892556 0.855704
vt 0.886734 0.792606
vt 0.891946 0.807458
vt 0.877538 0.796557
vt 0.952079 0.769673
vt 0.974587 0.823247
vt 0.908534 0.849382
vt 0.963523 0.769153
vt 0.954718 0.785168
vt 0.990781 0.814117
vt 0.516661 0.875119
vt 0.462384 0.942353
vt 0.453682 0.936834
vt 0.789661 0.726756
vt 0.876153 0.797664
vt 0.529285 0.876702
vt 0.538878 0.860184
vt 0.762791 0.728824
vt 0.541308 0.861859
vt 0.636846 0.943376
vt 0.557284 0.967823
vt 0.477722 0.992271
vt 0.766558 0.992271
vt 0.909733 0.856430
vt 0.170207 0.704751
vt 0.582579 0.701004
vt 0.579233 0.008785
vt 0.166460 0.292378
vt 0.675197 0.180462
vt 0.870740 0.122155
vt 0.882673 0.134532
vt 0.912093 0.212113
vt 0.939066 0.307755
vt 0.871892 0.331768
vt 0.876628 0.727343
vt 0.694641 0.739213
vt 0.934935 0.922886
vt 0.922558 0.934819
vt 0.844977 0.964239
vt 0.749335 0.991213
vt 0.725322 0.924039
s 0
usemtl Material
f 14/1/1 1/2/1 12/3/1
f 19/4/2 11/5/2 17/6/2
f 8/7/3 13/8/3 18/9/3
f 5/10/4 6/11/4 2/12/4
f 9/13/5 16/14/5 7/15/5
f 3/16/6 4/17/6 5/18/6
f 8/19/7 9/20/7 10/21/7
f 13/22/8 14/23/8 15/24/8
f 18/25/9 19/26/9 20/27/9
f 3/16/10 2/12/10 1/2/10
f 8/28/11 5/10/11 4/29/11
f 7/15/12 10/21/12 9/20/12
f 8/7/13 20/30/13 9/13/13
f 17/6/14 20/27/14 19/26/14
f 13/31/15 19/4/15 18/32/15
f 12/3/16 15/24/16 14/23/16
f 4/33/17 14/1/17 13/34/17
f 7/15/18 17/6/18 12/3/18
f 29/35/19 32/36/19 30/37/19
f 30/37/5 27/38/5 29/35/5
f 31/39/20 30/40/20 32/36/20
f 34/41/21 30/37/21 31/42/21
f 34/41/22 35/43/22 33/44/22
f 35/45/23 27/38/23 33/44/23
f 38/46/24 35/45/24 34/47/24
f 26/48/2 36/49/2 25/50/2
f 36/49/25 38/46/25 37/51/25
f 37/51/26 39/52/26 36/49/26
f 25/50/2 39/52/2 23/53/2
f 40/54/27 41/55/27 39/56/27
f 41/55/28 23/53/28 39/52/28
f 44/57/29 41/55/29 40/54/29
f 41/55/1 22/58/1 24/59/1
f 43/60/30 42/61/30 44/57/30
f 42/61/31 21/62/31 22/58/31
f 45/63/32 43/64/32 44/65/32
f 45/66/33 40/67/33 37/51/33
f 46/68/34 45/63/34 47/69/34
f 37/51/35 47/70/35 45/66/35
f 47/71/36 32/36/36 46/68/36
f 31/72/3 38/46/3 34/47/3
f 46/68/4 28/73/4 48/74/4
f 43/64/4 48/74/4 21/75/4
f 28/76/18 25/50/18 24/77/18
f 57/78/19 60/79/19 58/80/19
f 58/80/5 55/81/5 57/78/5
f 59/82/20 58/83/20 60/79/20
f 62/84/21 58/80/21 59/85/21
f 62/84/22 63/86/22 61/87/22
f 63/88/23 55/81/23 61/87/23
f 66/89/24 63/88/24 62/90/24
f 54/91/2 64/92/2 53/93/2
f 64/92/25 66/89/25 65/94/25
f 65/94/37 67/95/37 64/92/37
f 53/93/2 67/95/2 51/96/2
f 68/97/27 69/98/27 67/99/27
f 69/98/28 51/96/28 67/95/28
f 72/100/29 69/98/29 68/97/29
f 69/98/1 50/101/1 52/102/1
f 71/103/30 70/104/30 72/100/30
f 70/104/31 49/105/31 50/101/31
f 73/106/32 71/107/32 72/108/32
f 73/109/33 68/110/33 65/94/33
f 74/111/34 73/106/34 75/112/34
f 65/94/35 75/113/35 73/109/35
f 75/114/36 60/79/36 74/111/36
f 62/90/3 75/113/3 66/89/3
f 74/111/4 56/115/4 76/116/4
f 71/107/4 76/116/4 49/117/4
f 56/118/18 53/93/18 52/119/18
f 14/1/1 3/120/1 1/2/1
f 19/4/2 15/121/2 11/5/2
f 8/7/3 4/122/3 13/8/3
f 5/10/4 10/123/4 6/11/4
f 9/13/5 20/30/5 16/14/5
f 3/16/10 5/18/10 2/12/10
f 8/28/11 10/123/11 5/10/11
f 7/15/12 6/11/12 10/21/12
f 8/7/13 18/9/13 20/30/13
f 17/6/14 16/14/14 20/27/14
f 13/31/15 15/121/15 19/4/15
f 12/3/16 11/5/16 15/24/16
f 4/33/17 3/120/17 14/1/17
f 12/3/18 1/2/18 2/12/18
f 2/12/18 6/11/18 7/15/18
f 7/15/18 16/14/18 17/6/18
f 17/6/18 11/5/18 12/3/18
f 12/3/18 2/12/18 7/15/18
f 29/35/19 28/73/19 32/36/19
f 30/37/5 33/44/5 27/38/5
f 34/41/21 33/44/21 30/37/21
f 35/45/23 26/48/23 27/38/23
f 38/46/38 36/49/38 35/45/38
f 26/48/2 35/45/2 36/49/2
f 37/51/39 40/67/39 39/52/39
f 25/50/2 36/49/2 39/52/2
f 41/55/28 24/59/28 23/53/28
f 44/57/29 42/61/29 41/55/29
f 41/55/1 42/61/1 22/58/1
f 42/61/31 43/60/31 21/62/31
f 45/63/40 46/68/40 43/64/40
f 45/66/33 44/124/33 40/67/33
f 37/51/35 38/46/35 47/70/35
f 47/71/41 31/39/41 32/36/41
f 31/72/3 47/70/3 38/46/3
f 46/68/4 32/36/4 28/73/4
f 43/64/4 46/68/4 48/74/4
f 24/77/18 22/125/18 21/126/18
f 21/126/18 48/127/18 28/76/18
f 28/76/18 29/128/18 27/129/18
f 27/129/18 26/48/18 25/50/18
f 25/50/18 23/53/18 24/77/18
f 24/77/18 21/126/18 28/76/18
f 28/76/18 27/129/18 25/50/18
f 57/78/19 56/115/19 60/79/19
f 58/80/5 61/87/5 55/81/5
f 62/84/21 61/87/21 58/80/21
f 63/88/23 54/91/23 55/81/23
f 66/89/38 64/92/38 63/88/38
f 54/91/2 63/88/2 64/92/2
f 65/94/39 68/110/39 67/95/39
f 53/93/2 64/92/2 67/95/2
f 69/98/28 52/102/28 51/96/28
f 72/100/29 70/104/29 69/98/29
f 69/98/1 70/104/1 50/101/1
f 70/104/31 71/103/31 49/105/31
f 73/106/42 74/111/42 71/107/42
f 73/109/33 72/130/33 68/110/33
f 65/94/35 66/89/35 75/113/35
f 75/114/41 59/82/41 60/79/41
f 62/90/3 59/131/3 75/113/3
f 74/111/4 60/79/4 56/115/4
f 71/107/4 74/111/4 76/116/4
f 52/119/18 50/132/18 49/133/18
f 49/133/18 76/134/18 56/118/18
f 56/118/18 57/135/18 55/136/18
f 55/136/18 54/91/18 53/93/18
f 53/93/18 51/96/18 52/119/18
f 52/119/18 49/133/18 56/118/18
f 56/118/18 55/136/18 53/93/18
